<svg width="20" height="20" viewBox="0 0 20 20" fill="none" xmlns="http://www.w3.org/2000/svg">
<path d="M16.25 8.75002C16.2499 7.25315 15.8019 5.79055 14.9637 4.55042C14.1254 3.31029 12.9352 2.34935 11.5463 1.79127C10.1573 1.23318 8.63319 1.10347 7.16992 1.41883C5.70665 1.73418 4.37121 2.48018 3.33545 3.56083C2.29969 4.64148 1.61098 6.00734 1.35794 7.48266C1.1049 8.95799 1.29912 10.4753 1.91559 11.8393C2.53206 13.2033 3.54259 14.3517 4.81715 15.1366C6.0917 15.9215 7.57198 16.3071 9.0675 16.2438C8.92606 15.8413 8.83087 15.424 8.78375 15H8.75C7.51387 15 6.3055 14.6335 5.27769 13.9467C4.24988 13.2599 3.44881 12.2838 2.97576 11.1418C2.50271 9.99975 2.37894 8.74308 2.6201 7.5307C2.86125 6.31832 3.45651 5.20468 4.33059 4.3306C5.20467 3.45652 6.31831 2.86127 7.53069 2.62011C8.74307 2.37895 9.99974 2.50272 11.1418 2.97577C12.2838 3.44882 13.2599 4.2499 13.9467 5.2777C14.6334 6.30551 15 7.51388 15 8.75002V8.78377C15.4317 8.83377 15.8463 8.92835 16.2438 9.06752C16.2479 8.96252 16.25 8.85668 16.25 8.75002ZM8.89 13.1225C8.99584 12.6609 9.15417 12.225 9.365 11.815C9.165 11.8542 8.96 11.8742 8.75 11.875C7.825 11.875 6.99375 11.4738 6.42 10.8338C6.30778 10.7174 6.15482 10.649 5.99325 10.643C5.83167 10.637 5.67406 10.6939 5.55352 10.8016C5.43298 10.9094 5.35889 11.0597 5.34682 11.2209C5.33474 11.3821 5.38561 11.5418 5.48875 11.6663C5.91474 12.1426 6.4399 12.5198 7.02729 12.7714C7.61469 13.023 8.25132 13.1428 8.89 13.1225ZM7.5 7.50002C7.5 7.74866 7.40123 7.98711 7.22542 8.16293C7.0496 8.33875 6.81114 8.43752 6.5625 8.43752C6.31386 8.43752 6.07541 8.33875 5.89959 8.16293C5.72378 7.98711 5.625 7.74866 5.625 7.50002C5.625 7.25138 5.72378 7.01292 5.89959 6.8371C6.07541 6.66129 6.31386 6.56252 6.5625 6.56252C6.81114 6.56252 7.0496 6.66129 7.22542 6.8371C7.40123 7.01292 7.5 7.25138 7.5 7.50002ZM10.9375 8.43752C11.1861 8.43752 11.4246 8.33875 11.6004 8.16293C11.7762 7.98711 11.875 7.74866 11.875 7.50002C11.875 7.25138 11.7762 7.01292 11.6004 6.8371C11.4246 6.66129 11.1861 6.56252 10.9375 6.56252C10.6889 6.56252 10.4504 6.66129 10.2746 6.8371C10.0988 7.01292 10 7.25138 10 7.50002C10 7.74866 10.0988 7.98711 10.2746 8.16293C10.4504 8.33875 10.6889 8.43752 10.9375 8.43752ZM18.75 14.375C18.75 15.5353 18.2891 16.6481 17.4686 17.4686C16.6481 18.2891 15.5353 18.75 14.375 18.75C13.2147 18.75 12.1019 18.2891 11.2814 17.4686C10.4609 16.6481 10 15.5353 10 14.375C10 13.2147 10.4609 12.1019 11.2814 11.2814C12.1019 10.461 13.2147 10 14.375 10C15.5353 10 16.6481 10.461 17.4686 11.2814C18.2891 12.1019 18.75 13.2147 18.75 14.375ZM15 11.875C15 11.7093 14.9342 11.5503 14.8169 11.4331C14.6997 11.3159 14.5408 11.25 14.375 11.25C14.2092 11.25 14.0503 11.3159 13.9331 11.4331C13.8159 11.5503 13.75 11.7093 13.75 11.875V13.75H11.875C11.7092 13.75 11.5503 13.8159 11.4331 13.9331C11.3159 14.0503 11.25 14.2093 11.25 14.375C11.25 14.5408 11.3159 14.6997 11.4331 14.817C11.5503 14.9342 11.7092 15 11.875 15H13.75V16.875C13.75 17.0408 13.8159 17.1997 13.9331 17.317C14.0503 17.4342 14.2092 17.5 14.375 17.5C14.5408 17.5 14.6997 17.4342 14.8169 17.317C14.9342 17.1997 15 17.0408 15 16.875V15H16.875C17.0408 15 17.1997 14.9342 17.3169 14.817C17.4342 14.6997 17.5 14.5408 17.5 14.375C17.5 14.2093 17.4342 14.0503 17.3169 13.9331C17.1997 13.8159 17.0408 13.75 16.875 13.75H15V11.875Z" fill="white"/>
</svg>
