<svg width="18" height="18" viewBox="0 0 18 18" fill="none" xmlns="http://www.w3.org/2000/svg">
<path d="M17.333 0.666626H5.66637V4.95829C4.56023 5.18438 3.53599 5.70588 2.70245 6.46737C1.86892 7.22887 1.25722 8.20192 0.932332 9.28318C0.607446 10.3644 0.581511 11.5135 0.85728 12.6083C1.13305 13.7031 1.70022 14.7028 2.49855 15.5011C3.29688 16.2994 4.29655 16.8666 5.39136 17.1424C6.48617 17.4181 7.63523 17.3922 8.71648 17.0673C9.79773 16.7424 10.7708 16.1307 11.5323 15.2972C12.2938 14.4637 12.8153 13.4394 13.0414 12.3333H17.333V0.666626ZM13.153 10.6666C13.0522 9.15622 12.4067 7.73373 11.3363 6.66334C10.2659 5.59295 8.84343 4.94741 7.33303 4.84663V2.33329H15.6664V10.6666H13.153ZM6.91637 6.49996C8.13194 6.49996 9.29773 6.98284 10.1573 7.84239C11.0168 8.70193 11.4997 9.86772 11.4997 11.0833C11.4997 12.2989 11.0168 13.4647 10.1573 14.3242C9.29773 15.1837 8.13194 15.6666 6.91637 15.6666C5.70079 15.6666 4.535 15.1837 3.67546 14.3242C2.81592 13.4647 2.33303 12.2989 2.33303 11.0833C2.33303 9.86772 2.81592 8.70193 3.67546 7.84239C4.535 6.98284 5.70079 6.49996 6.91637 6.49996Z" fill="white"/>
</svg>
